<?xml version="1.0" standalone="no"?>
<!DOCTYPE svg PUBLIC "-//W3C//DTD SVG 20010904//EN"
 "http://www.w3.org/TR/2001/REC-SVG-20010904/DTD/svg10.dtd">
<svg version="1.0" xmlns="http://www.w3.org/2000/svg"
 width="222.000000pt" height="227.000000pt" viewBox="0 0 222.000000 227.000000"
 preserveAspectRatio="xMidYMid meet">

<g transform="translate(0.000000,227.000000) scale(0.100000,-0.100000)"
fill="#000000" stroke="none">
<path d="M1095 2251 c-4 -7 0 -8 11 -4 11 4 15 2 11 -4 -4 -6 1 -17 11 -24 16
-13 16 -13 2 5 -8 11 -14 22 -12 25 6 10 -16 12 -23 2z"/>
<path d="M1067 2233 c-4 -6 0 -13 8 -17 8 -3 17 0 21 6 4 6 3 8 -4 4 -5 -3
-12 -1 -14 6 -3 8 -6 9 -11 1z"/>
<path d="M1175 2211 c6 -11 4 -13 -8 -8 -23 9 -21 0 2 -13 15 -7 19 -7 17 5
-1 8 -6 18 -11 22 -4 5 -5 2 0 -6z"/>
<path d="M961 2171 c-27 -14 -30 -19 -17 -24 11 -5 15 -3 10 5 -5 8 -2 9 9 5
11 -4 20 1 27 13 13 24 14 24 -29 1z"/>
<path d="M180 2043 c-74 -76 -101 -105 -59 -65 41 40 78 70 82 67 4 -3 5 -2 2
2 -8 10 37 53 48 46 6 -3 7 -1 4 4 -7 11 10 31 28 32 6 1 10 4 10 9 0 13 16
32 26 32 6 0 7 -4 4 -10 -8 -13 5 -13 25 0 9 6 10 10 3 10 -6 0 -17 2 -25 5
-8 3 -68 -51 -148 -132z"/>
<path d="M1243 2165 c0 -7 6 -11 14 -8 7 3 13 6 13 8 0 2 -6 5 -13 8 -8 3 -14
-1 -14 -8z"/>
<path d="M1887 2174 c-11 -12 3 -23 20 -17 10 4 14 2 10 -4 -4 -6 0 -16 8 -23
8 -7 15 -9 15 -4 0 4 11 -3 25 -16 13 -12 23 -25 22 -29 -1 -3 1 -6 5 -6 4 0
53 -45 108 -100 l100 -100 2 -700 3 -700 2 700 3 700 -152 152 c-84 84 -155
153 -159 153 -3 0 -9 -3 -12 -6z"/>
<path d="M360 2150 c-8 -5 -10 -10 -5 -10 6 0 17 5 25 10 8 5 11 10 5 10 -5 0
-17 -5 -25 -10z"/>
<path d="M390 2140 c-8 -5 -10 -10 -5 -10 6 0 17 5 25 10 8 5 11 10 5 10 -5 0
-17 -5 -25 -10z"/>
<path d="M910 2140 c8 -5 20 -10 25 -10 6 0 3 5 -5 10 -8 5 -19 10 -25 10 -5
0 -3 -5 5 -10z"/>
<path d="M1290 2140 c-9 -6 -10 -10 -3 -10 6 0 19 -3 27 -6 12 -5 15 -2 10 10
-7 18 -13 20 -34 6z"/>
<path d="M446 2126 c6 -15 52 -31 62 -21 3 3 -3 5 -14 5 -16 0 -17 2 -4 11 13
9 12 10 -2 5 -10 -3 -20 -1 -23 4 -10 15 -25 12 -19 -4z"/>
<path d="M810 2121 l-25 -7 25 -7 c36 -10 47 -8 30 4 -11 8 -8 9 15 5 22 -5
26 -4 15 4 -17 11 -24 11 -60 1z"/>
<path d="M1096 2122 c-2 -4 4 -8 14 -8 10 0 16 4 14 8 -3 4 -9 8 -14 8 -5 0
-11 -4 -14 -8z"/>
<path d="M1350 2120 c-18 -12 -2 -12 25 0 13 6 15 9 5 9 -8 0 -22 -4 -30 -9z"/>
<path d="M1730 2120 c8 -5 22 -10 30 -10 13 0 13 1 0 10 -8 5 -22 10 -30 10
-13 0 -13 -1 0 -10z"/>
<path d="M528 2113 c6 -2 18 -2 25 0 6 3 1 5 -13 5 -14 0 -19 -2 -12 -5z"/>
<path d="M1385 2110 l-20 -9 20 0 c11 0 27 4 35 9 13 9 13 10 0 9 -8 0 -24 -4
-35 -9z"/>
<path d="M1707 2109 c7 -7 15 -10 18 -7 3 3 -2 9 -12 12 -14 6 -15 5 -6 -5z"/>
<path d="M570 2100 l-25 -8 28 -1 c15 -1 27 4 27 9 0 6 -1 10 -2 9 -2 -1 -14
-5 -28 -9z"/>
<path d="M647 2103 c18 -2 50 -2 70 0 21 2 7 4 -32 4 -38 0 -55 -2 -38 -4z"/>
<path d="M1130 2100 c-9 -6 -10 -10 -3 -10 6 0 15 5 18 10 8 12 4 12 -15 0z"/>
<path d="M1445 2101 c-11 -5 19 -7 70 -4 117 6 131 11 30 12 -44 0 -89 -4
-100 -8z"/>
<path d="M778 2093 c7 -3 16 -2 19 1 4 3 -2 6 -13 5 -11 0 -14 -3 -6 -6z"/>
<path d="M1020 2080 c-19 -11 -31 -19 -27 -20 11 0 67 29 67 35 0 7 -1 7 -40
-15z"/>
<path d="M1167 2089 c7 -7 15 -10 18 -7 3 3 -2 9 -12 12 -14 6 -15 5 -6 -5z"/>
<path d="M668 2083 c6 -2 18 -2 25 0 6 3 1 5 -13 5 -14 0 -19 -2 -12 -5z"/>
<path d="M1538 2083 c6 -2 18 -2 25 0 6 3 1 5 -13 5 -14 0 -19 -2 -12 -5z"/>
<path d="M260 1973 l-85 -88 88 85 c81 79 92 90 84 90 -1 0 -41 -39 -87 -87z"/>
<path d="M1945 1980 c44 -47 82 -84 85 -82 2 1 -34 40 -80 85 l-84 82 79 -85z"/>
<path d="M370 2040 c8 -5 24 -10 34 -10 26 0 18 6 -19 14 -22 5 -26 4 -15 -4z"/>
<path d="M911 1963 c2 -79 6 -70 11 25 2 28 0 52 -4 52 -5 0 -7 -35 -7 -77z"/>
<path d="M1303 1965 c0 -44 2 -61 4 -37 2 23 2 59 0 80 -2 20 -4 1 -4 -43z"/>
<path d="M438 2023 c7 -3 16 -2 19 1 4 3 -2 6 -13 5 -11 0 -14 -3 -6 -6z"/>
<path d="M1765 2020 c-3 -6 1 -7 9 -4 18 7 21 14 7 14 -6 0 -13 -4 -16 -10z"/>
<path d="M488 1973 c5 -83 9 -90 11 -20 0 37 -2 67 -7 67 -4 0 -6 -21 -4 -47z"/>
<path d="M1721 1953 c2 -70 6 -63 11 20 2 26 0 47 -4 47 -5 0 -7 -30 -7 -67z"/>
<path d="M19 1883 c-13 -16 -12 -17 3 -5 9 8 23 10 29 6 8 -4 9 -3 5 4 -10 17
-21 15 -37 -5z"/>
<path d="M2150 1896 c0 -2 8 -10 18 -17 15 -13 16 -12 3 4 -13 16 -21 21 -21
13z"/>
<path d="M15 1175 c0 -352 1 -495 2 -317 2 178 2 466 0 640 -1 174 -2 29 -2
-323z"/>
<path d="M1590 1792 c-41 -22 -80 -90 -80 -139 0 -48 22 -95 59 -126 27 -22
42 -27 90 -27 63 0 93 15 116 60 21 40 19 60 -5 60 -11 0 -20 -7 -20 -15 0
-27 -47 -65 -78 -65 -53 0 -75 29 -80 102 -4 57 -1 68 19 91 38 42 73 45 109
9 16 -17 30 -38 30 -46 0 -9 8 -16 20 -16 18 0 20 7 20 60 0 53 -2 60 -20 60
-11 0 -20 -5 -20 -10 0 -6 -13 -4 -30 5 -39 20 -88 19 -130 -3z"/>
<path d="M390 1785 c0 -9 11 -20 25 -25 25 -10 26 -11 23 -112 -3 -98 -4 -103
-25 -106 -15 -2 -23 -10 -23 -23 0 -18 8 -19 140 -19 l140 0 0 65 c0 57 -2 65
-19 65 -14 0 -21 -10 -25 -35 -8 -40 -30 -55 -80 -55 l-36 0 0 110 c0 66 4
111 10 111 6 1 16 2 22 3 7 0 14 9 16 19 3 15 -6 17 -82 17 -70 0 -86 -3 -86
-15z"/>
<path d="M930 1780 c0 -13 7 -20 20 -20 19 0 20 -7 20 -110 0 -103 -1 -110
-20 -110 -13 0 -20 -7 -20 -20 0 -18 7 -20 83 -20 108 1 154 12 191 49 26 26
31 39 34 94 3 46 0 73 -12 95 -26 51 -60 62 -186 62 -103 0 -110 -1 -110 -20z
m209 -39 c42 -42 35 -153 -12 -186 -12 -8 -36 -15 -54 -15 l-33 0 0 110 0 110
40 0 c26 0 47 -7 59 -19z"/>
<path d="M715 1566 c-20 -15 -17 -44 7 -59 12 -8 21 -7 32 2 36 30 -1 85 -39
57z"/>
<path d="M1296 1564 c-20 -19 -20 -38 -1 -54 21 -17 55 -3 55 24 0 21 -17 46
-31 46 -4 0 -15 -7 -23 -16z"/>
<path d="M1852 1568 c-19 -19 -14 -56 8 -63 23 -7 50 10 50 31 0 13 -27 44
-39 44 -4 0 -12 -5 -19 -12z"/>
<path d="M495 950 c0 -256 1 -360 2 -233 2 128 2 338 0 465 -1 128 -2 24 -2
-232z"/>
<path d="M912 858 c-1 -306 1 -559 6 -561 6 -5 6 402 -1 918 -1 110 -3 -51 -5
-357z"/>
<path d="M1300 853 c-3 -309 -2 -559 3 -554 4 4 6 257 5 562 l-3 554 -5 -562z"/>
<path d="M1725 950 c0 -256 1 -360 2 -233 2 128 2 338 0 465 -1 128 -2 24 -2
-232z"/>
<path d="M198 543 c12 -2 30 -2 40 0 9 3 -1 5 -23 4 -22 0 -30 -2 -17 -4z"/>
<path d="M1993 543 c9 -2 23 -2 30 0 6 3 -1 5 -18 5 -16 0 -22 -2 -12 -5z"/>
<path d="M303 533 c9 -2 23 -2 30 0 6 3 -1 5 -18 5 -16 0 -22 -2 -12 -5z"/>
<path d="M350 530 c0 -5 7 -10 16 -10 8 0 12 5 9 10 -3 6 -10 10 -16 10 -5 0
-9 -4 -9 -10z"/>
<path d="M1893 533 c9 -2 23 -2 30 0 6 3 -1 5 -18 5 -16 0 -22 -2 -12 -5z"/>
<path d="M418 513 c7 -3 16 -2 19 1 4 3 -2 6 -13 5 -11 0 -14 -3 -6 -6z"/>
<path d="M458 503 c7 -3 16 -2 19 1 4 3 -2 6 -13 5 -11 0 -14 -3 -6 -6z"/>
<path d="M13 458 c-2 -18 0 -20 7 -8 12 18 13 30 2 30 -4 0 -9 -10 -9 -22z"/>
<path d="M50 450 c-9 -6 -10 -10 -3 -10 6 0 15 5 18 10 8 12 4 12 -15 0z"/>
<path d="M115 450 c-19 -6 -2 -7 45 -3 41 2 77 7 79 9 7 7 -93 2 -124 -6z"/>
<path d="M1993 453 c9 -2 23 -2 30 0 6 3 -1 5 -18 5 -16 0 -22 -2 -12 -5z"/>
<path d="M2110 450 c-24 -8 -23 -8 8 -9 20 -1 31 3 27 9 -3 6 -7 10 -8 9 -1
-1 -13 -5 -27 -9z"/>
<path d="M2195 450 c-3 -5 -1 -10 4 -10 6 0 11 5 11 10 0 6 -2 10 -4 10 -3 0
-8 -4 -11 -10z"/>
<path d="M298 443 c7 -3 16 -2 19 1 4 3 -2 6 -13 5 -11 0 -14 -3 -6 -6z"/>
<path d="M1925 440 c17 -4 39 -8 50 -8 16 0 15 2 -5 8 -14 4 -36 8 -50 8 -22
0 -22 -1 5 -8z"/>
<path d="M243 433 c9 -2 23 -2 30 0 6 3 -1 5 -18 5 -16 0 -22 -2 -12 -5z"/>
<path d="M320 430 c-20 -6 -21 -8 -5 -8 11 0 29 3 40 8 25 11 -1 11 -35 0z"/>
<path d="M1858 433 c7 -3 16 -2 19 1 4 3 -2 6 -13 5 -11 0 -14 -3 -6 -6z"/>
<path d="M380 420 c-18 -12 -2 -12 25 0 13 6 15 9 5 9 -8 0 -22 -4 -30 -9z"/>
<path d="M1898 423 c7 -3 16 -2 19 1 4 3 -2 6 -13 5 -11 0 -14 -3 -6 -6z"/>
<path d="M425 410 c-13 -6 -15 -9 -5 -9 8 0 22 4 30 9 18 12 2 12 -25 0z"/>
<path d="M1770 410 c8 -5 22 -9 30 -9 10 0 8 3 -5 9 -27 12 -43 12 -25 0z"/>
<path d="M460 400 c-8 -5 -10 -10 -5 -10 6 0 17 5 25 10 8 5 11 10 5 10 -5 0
-17 -5 -25 -10z"/>
<path d="M1740 400 c8 -5 20 -10 25 -10 6 0 3 5 -5 10 -8 5 -19 10 -25 10 -5
0 -3 -5 5 -10z"/>
<path d="M500 390 c-9 -6 -10 -10 -3 -10 6 0 15 5 18 10 8 12 4 12 -15 0z"/>
<path d="M1665 386 c-25 -10 -26 -13 -12 -19 12 -5 16 -3 11 5 -5 7 0 9 14 6
12 -4 20 -2 17 2 -3 5 1 11 7 13 7 3 9 6 3 6 -5 0 -23 -6 -40 -13z"/>
<path d="M548 383 c6 -2 10 -9 7 -14 -4 -5 1 -6 10 -2 13 5 14 7 3 14 -7 5
-17 8 -23 8 -5 0 -4 -3 3 -6z"/>
<path d="M580 360 c-8 -5 -10 -10 -5 -10 6 0 17 5 25 10 8 5 11 10 5 10 -5 0
-17 -5 -25 -10z"/>
<path d="M1610 366 c0 -2 7 -7 16 -10 8 -3 12 -2 9 4 -6 10 -25 14 -25 6z"/>
<path d="M612 351 c-11 -6 -10 -10 4 -15 9 -3 19 -4 22 -1 3 3 0 5 -7 5 -7 0
-9 5 -6 10 7 12 4 12 -13 1z"/>
<path d="M1551 341 c-27 -14 -30 -19 -17 -24 11 -5 15 -3 10 5 -5 8 -2 9 10 5
11 -5 15 -3 10 5 -5 8 -2 9 10 5 9 -4 15 -3 11 2 -3 5 1 12 7 14 7 3 9 6 3 6
-5 0 -25 -8 -44 -18z"/>
<path d="M655 330 c-3 -6 1 -7 9 -4 18 7 21 14 7 14 -6 0 -13 -4 -16 -10z"/>
<path d="M702 311 c-11 -7 -11 -9 0 -14 9 -3 15 1 15 9 0 8 -1 14 -1 14 -1 0
-7 -4 -14 -9z"/>
<path d="M1500 309 c0 -5 -4 -8 -8 -5 -5 3 -9 -1 -9 -8 0 -8 6 -12 14 -9 12 5
19 33 8 33 -3 0 -5 -5 -5 -11z"/>
<path d="M733 295 c0 -7 6 -11 14 -8 7 3 13 6 13 8 0 2 -6 5 -13 8 -8 3 -14
-1 -14 -8z"/>
<path d="M1447 289 c-9 -6 -14 -15 -11 -21 5 -7 2 -9 -8 -6 -8 4 -15 0 -15 -7
0 -10 5 -11 19 -4 10 6 15 15 12 21 -5 7 -2 9 8 6 9 -4 15 0 15 8 0 8 -1 14
-1 14 -1 0 -9 -5 -19 -11z"/>
<path d="M774 275 c1 -8 6 -18 11 -22 4 -4 5 -2 1 5 -4 6 -3 12 3 12 5 0 11
-7 13 -15 2 -9 8 -11 15 -7 9 6 4 13 -16 25 -25 14 -29 15 -27 2z"/>
<path d="M1040 213 c25 -23 47 -39 50 -36 3 3 -1 8 -8 10 -6 3 -9 10 -5 16 3
7 3 9 -2 5 -4 -4 -24 5 -44 19 -29 21 -27 18 9 -14z"/>
<path d="M1189 223 c-13 -16 -12 -17 4 -4 16 13 21 21 13 21 -2 0 -10 -8 -17
-17z"/>
<path d="M1344 225 c-16 -11 -15 -12 10 -10 34 4 42 11 22 18 -8 3 -22 0 -32
-8z"/>
<path d="M870 219 c0 -5 -5 -7 -12 -3 -7 4 -8 3 -4 -4 4 -6 13 -9 21 -6 8 4
12 10 9 15 -7 12 -14 11 -14 -2z"/>
<path d="M1303 193 c-3 -10 -8 -22 -11 -27 -3 -5 0 -6 5 -3 11 7 25 47 17 47
-3 0 -7 -8 -11 -17z"/>
<path d="M886 189 c2 -4 12 -5 21 -2 10 4 14 2 9 -5 -3 -6 -2 -13 3 -16 5 -4
8 2 7 11 -2 10 -12 18 -24 19 -12 1 -19 -2 -16 -7z"/>
<path d="M1131 180 c-13 -11 -19 -20 -14 -20 6 0 18 9 28 20 23 25 17 25 -14
0z"/>
<path d="M940 167 c0 -22 39 -52 51 -40 8 8 7 13 -2 18 -8 5 -10 4 -5 -3 4 -7
3 -12 -2 -12 -13 0 -33 25 -26 32 3 3 1 9 -5 13 -6 3 -11 0 -11 -8z"/>
<path d="M1260 165 c-7 -8 -9 -15 -5 -15 4 0 1 -8 -6 -17 -13 -17 -13 -17 7 0
11 9 21 24 21 32 0 19 -2 19 -17 0z"/>
<path d="M1215 130 c-10 -11 -15 -20 -10 -20 4 0 1 -8 -6 -17 -11 -15 -9 -14
9 1 12 11 20 21 17 24 -3 3 0 11 6 19 18 21 4 15 -16 -7z"/>
<path d="M1000 106 c0 -2 8 -10 18 -17 15 -13 16 -12 3 4 -13 16 -21 21 -21
13z"/>
<path d="M1043 94 c9 -11 15 -23 12 -26 -3 -2 9 -17 25 -33 l30 -29 33 32 c36
35 50 77 16 46 -10 -9 -16 -20 -14 -24 7 -11 -20 -31 -30 -22 -5 4 -5 1 -1 -5
4 -7 3 -13 -2 -13 -12 0 -43 35 -37 42 3 2 -7 15 -22 29 -20 17 -23 18 -10 3z"/>
</g>
</svg>
